<?xml version="1.0" encoding="utf-8"?>
<!-- Generator: Adobe Illustrator 25.0.0, SVG Export Plug-In . SVG Version: 6.00 Build 0)  -->
<svg version="1.1" id="Layer_1" xmlns="http://www.w3.org/2000/svg" xmlns:xlink="http://www.w3.org/1999/xlink" x="0px" y="0px"
	 viewBox="0 0 500 500" style="enable-background:new 0 0 500 500;" xml:space="preserve">
<style type="text/css">
	.st0{clip-path:url(#SVGID_2_);}
	.st1{fill:#2467FF;}
	.st2{clip-path:url(#SVGID_4_);fill:#313335;}
	.st3{clip-path:url(#SVGID_4_);}
	.st4{fill:#FFFFFF;}
</style>
<g>
	<defs>
		<rect id="SVGID_1_" x="-519.7" y="0.3" width="499.3" height="499.3"/>
	</defs>
	<clipPath id="SVGID_2_">
		<use xlink:href="#SVGID_1_"  style="overflow:visible;"/>
	</clipPath>
	<g class="st0">
		<g>
			<path d="M-315.3,344.5h-2v6.3h-0.8v-6.3h-2v-0.7h4.9V344.5z"/>
			<path d="M-307.6,350.8h-3.7v-7h3.6v0.7h-2.7v2.3h2.5v0.7h-2.5v2.5h2.9V350.8z"/>
			<path d="M-298.6,350.5c-0.5,0.3-1.2,0.4-1.9,0.4c-1,0-1.8-0.3-2.4-1c-0.6-0.6-0.9-1.5-0.9-2.5c0-1.1,0.3-2,1-2.7
				c0.7-0.7,1.5-1,2.6-1c0.7,0,1.2,0.1,1.7,0.3v0.9c-0.5-0.3-1.1-0.4-1.7-0.4c-0.8,0-1.5,0.3-2,0.8c-0.5,0.5-0.8,1.3-0.8,2.2
				c0,0.9,0.2,1.5,0.7,2c0.5,0.5,1.1,0.8,1.8,0.8c0.7,0,1.3-0.2,1.8-0.5V350.5z"/>
			<path d="M-289.1,350.8h-0.8v-3.2h-3.6v3.2h-0.8v-7h0.8v3.1h3.6v-3.1h0.8V350.8z"/>
			<path d="M-275.2,344.5h-2.7v2.4h2.5v0.7h-2.5v3.1h-0.8v-7h3.6V344.5z"/>
			<path d="M-268.2,351c-1,0-1.8-0.3-2.4-1c-0.6-0.7-0.9-1.5-0.9-2.6c0-1.1,0.3-2,0.9-2.7c0.6-0.7,1.4-1,2.5-1c1,0,1.8,0.3,2.3,1
				c0.6,0.7,0.9,1.5,0.9,2.6c0,1.1-0.3,2.1-0.9,2.7C-266.4,350.6-267.2,351-268.2,351z M-268.2,344.4c-0.7,0-1.3,0.3-1.8,0.8
				c-0.5,0.5-0.7,1.2-0.7,2.1c0,0.9,0.2,1.6,0.7,2.1s1,0.8,1.8,0.8c0.8,0,1.4-0.3,1.8-0.8s0.7-1.2,0.7-2.1c0-0.9-0.2-1.6-0.6-2.2
				C-266.8,344.7-267.4,344.4-268.2,344.4z"/>
			<path d="M-255.6,350.8h-1l-1.2-2c-0.1-0.2-0.2-0.3-0.3-0.5c-0.1-0.1-0.2-0.2-0.3-0.3c-0.1-0.1-0.2-0.1-0.3-0.2
				c-0.1,0-0.3-0.1-0.4-0.1h-0.7v3h-0.8v-7h2.1c0.3,0,0.6,0,0.9,0.1s0.5,0.2,0.7,0.4c0.2,0.2,0.3,0.4,0.4,0.6
				c0.1,0.2,0.2,0.5,0.2,0.8c0,0.2,0,0.5-0.1,0.7s-0.2,0.4-0.3,0.5s-0.3,0.3-0.5,0.4s-0.4,0.2-0.6,0.3v0c0.1,0.1,0.2,0.1,0.3,0.2
				c0.1,0.1,0.2,0.1,0.2,0.2c0.1,0.1,0.2,0.2,0.2,0.3c0.1,0.1,0.2,0.3,0.3,0.4L-255.6,350.8z M-259.8,344.5v2.6h1.1
				c0.2,0,0.4,0,0.6-0.1c0.2-0.1,0.3-0.2,0.5-0.3c0.1-0.1,0.2-0.3,0.3-0.4c0.1-0.2,0.1-0.4,0.1-0.6c0-0.4-0.1-0.7-0.4-0.9
				c-0.2-0.2-0.6-0.3-1.1-0.3H-259.8z"/>
			<path d="M-242.6,350.8h-3.7v-7h0.8v6.3h2.8V350.8z"/>
			<path d="M-237.8,350.8h-0.8v-7h0.8V350.8z"/>
			<path d="M-229.6,344.5h-2.7v2.4h2.5v0.7h-2.5v3.1h-0.8v-7h3.6V344.5z"/>
			<path d="M-221.7,350.8h-3.7v-7h3.6v0.7h-2.7v2.3h2.5v0.7h-2.5v2.5h2.9V350.8z"/>
		</g>
		<g>
			<path d="M-401.2,330.8l3.2-9.1h3.6l-4.9,13h-3.7l-4.9-13h3.6L-401.2,330.8z"/>
			<path d="M-383.6,334.7h-6.7v-2.6h1.7v-7.8h-1.7v-2.6h6.7v2.6h-1.7v7.8h1.7V334.7z"/>
			<path d="M-367.8,334.7h-10.3v-13h10.3v2.6h-7v2.5h5.5v2.6h-5.5v2.7h7V334.7z"/>
			<path d="M-356.3,334.7h-3.4v-10.4h-3.9v-2.6h11.2v2.6h-3.9V334.7z"/>
			<path d="M-336,334.7h-3.5l-4.5-7.8v7.8h-3.4v-13h3.5l4.5,7.8v-7.8h3.4V334.7z"/>
			<path d="M-327.7,334.7h-3.6l4.9-13h3.7l4.9,13h-3.6l-0.8-2.3h-4.7L-327.7,334.7z M-326,329.9h3l-1.5-4.4L-326,329.9z"/>
			<path d="M-301.9,327.4l-2.6,4.7h-2.6l-2.6-4.7v7.3h-3.4v-13h3.5l3.7,6.9l3.7-6.9h3.5v13h-3.4V327.4z"/>
			<path d="M-276.9,334.7h-3.4v-10.4h-3.9v-2.6h11.2v2.6h-3.9V334.7z"/>
			<path d="M-257.6,334.7H-268v-13h10.3v2.6h-7v2.5h5.5v2.6h-5.5v2.7h7V334.7z"/>
			<path d="M-249.2,334.7c-1.2,0-2.1-0.3-2.7-0.8c-0.6-0.6-0.9-1.5-0.9-2.7v-5.9c0-1.3,0.3-2.2,0.9-2.8c0.6-0.6,1.5-0.9,2.8-0.9h6.7
				v2.6h-6c-0.7,0-1.1,0.4-1.1,1.1v5.9c0,0.3,0.1,0.5,0.3,0.7c0.2,0.2,0.4,0.2,0.7,0.2c0.2,0,0.5,0,0.8,0s0.6,0,1,0c0.3,0,0.7,0,1,0
				s0.7-0.1,1-0.2c0.8,0,1.5,0,2.3,0v2.4c-0.8,0.2-1.7,0.2-2.5,0.2c-0.7,0-1.5,0-2.2,0S-248.6,334.7-249.2,334.7z"/>
			<path d="M-225.7,334.7h-3.4v-5.3h-4.7v5.3h-3.4v-13h3.4v5.1h4.7v-5.1h3.4V334.7z"/>
			<path d="M-208.4,334.7h-3.5l-4.5-7.8v7.8h-3.4v-13h3.5l4.5,7.8v-7.8h3.4V334.7z"/>
			<path d="M-190.7,331.1c0,1.3-0.3,2.3-0.9,2.8c-0.6,0.6-1.5,0.9-2.8,0.9h-4.7c-1.3,0-2.3-0.3-2.8-0.9c-0.6-0.6-0.9-1.5-0.9-2.8v-6
				c0-1.3,0.3-2.3,0.9-2.8c0.6-0.6,1.5-0.9,2.8-0.9h4.7c1.3,0,2.3,0.3,2.8,0.9s0.9,1.5,0.9,2.8V331.1z M-194.1,325.2
				c0-0.7-0.4-1.1-1.1-1.1h-3.2c-0.7,0-1.1,0.4-1.1,1.1v6c0,0.7,0.4,1.1,1.1,1.1h3.2c0.7,0,1.1-0.4,1.1-1.1V325.2z"/>
			<path d="M-181.8,332.1h6.8v2.6h-10.2v-13h3.4V332.1z"/>
			<path d="M-158.2,331.1c0,1.3-0.3,2.3-0.9,2.8c-0.6,0.6-1.5,0.9-2.8,0.9h-4.7c-1.3,0-2.3-0.3-2.8-0.9c-0.6-0.6-0.9-1.5-0.9-2.8v-6
				c0-1.3,0.3-2.3,0.9-2.8c0.6-0.6,1.5-0.9,2.8-0.9h4.7c1.3,0,2.3,0.3,2.8,0.9s0.9,1.5,0.9,2.8V331.1z M-161.5,325.2
				c0-0.7-0.4-1.1-1.1-1.1h-3.2c-0.7,0-1.1,0.4-1.1,1.1v6c0,0.7,0.4,1.1,1.1,1.1h3.2c0.7,0,1.1-0.4,1.1-1.1V325.2z"/>
			<path d="M-149.4,334.8c-1.2,0-2.1-0.3-2.7-0.9c-0.6-0.6-0.9-1.5-0.9-2.7v-5.9c0-1.3,0.3-2.2,0.9-2.8c0.6-0.6,1.5-0.9,2.8-0.9h6.7
				v2.6h-6c-0.7,0-1.1,0.4-1.1,1.1v5.9c0,0.3,0.1,0.5,0.3,0.7c0.2,0.2,0.4,0.2,0.7,0.2c0.4,0,0.8,0,1.2,0s0.9,0,1.3,0
				c0.5,0,0.9,0,1.4,0v-2.8h-2.4v-2.2h5.8v7.2c-0.9,0.1-1.9,0.2-2.8,0.2c-0.8,0.1-1.7,0.2-2.6,0.2S-148.6,334.8-149.4,334.8z"/>
			<path d="M-138.1,321.6h3.5l3.1,6.3l3.1-6.3h3.5l-4.9,9.6v3.4h-3.4v-3.4L-138.1,321.6z"/>
		</g>
		<polygon class="st1" points="-105.1,183.5 -105.9,184.9 -170.5,303.4 -258.6,303.5 -280.1,265 -257.4,224.6 -235.6,263.3 
			-191.8,263.3 -147.1,184.9 -170.8,184.9 -192.4,146.8 -125.8,146.8 		"/>
		<polygon class="st1" points="-191.7,184.9 -213.5,226.5 -236.6,184.9 -279,184.9 -346.1,303.4 -349.1,297.9 -359.2,279.6 
			-368.4,263 -410,189.1 -434.2,146.8 -361.9,146.7 -382,164.4 -345.7,225.7 -301.9,146.7 -213.5,146.7 		"/>
	</g>
</g>
<g>
	<defs>
		<rect id="SVGID_3_" width="500" height="500"/>
	</defs>
	<clipPath id="SVGID_4_">
		<use xlink:href="#SVGID_3_"  style="overflow:visible;"/>
	</clipPath>
	<rect class="st2" width="500" height="500"/>
	<g class="st3">
		<g>
			<path class="st4" d="M204.4,344.5h-2v6.3h-0.8v-6.3h-2v-0.7h4.9V344.5z"/>
			<path class="st4" d="M212,350.8h-3.7v-7h3.6v0.7h-2.7v2.3h2.5v0.7h-2.5v2.5h2.9V350.8z"/>
			<path class="st4" d="M221,350.5c-0.5,0.3-1.2,0.4-1.9,0.4c-1,0-1.8-0.3-2.4-1c-0.6-0.6-0.9-1.5-0.9-2.5c0-1.1,0.3-2,1-2.7
				s1.5-1,2.6-1c0.7,0,1.2,0.1,1.7,0.3v0.9c-0.5-0.3-1.1-0.4-1.7-0.4c-0.8,0-1.5,0.3-2,0.8c-0.5,0.5-0.8,1.3-0.8,2.2
				c0,0.9,0.2,1.5,0.7,2c0.5,0.5,1.1,0.8,1.8,0.8c0.7,0,1.3-0.2,1.8-0.5V350.5z"/>
			<path class="st4" d="M230.6,350.8h-0.8v-3.2h-3.6v3.2h-0.8v-7h0.8v3.1h3.6v-3.1h0.8V350.8z"/>
			<path class="st4" d="M244.4,344.5h-2.7v2.4h2.5v0.7h-2.5v3.1h-0.8v-7h3.6V344.5z"/>
			<path class="st4" d="M251.4,351c-1,0-1.8-0.3-2.4-1c-0.6-0.7-0.9-1.5-0.9-2.6c0-1.1,0.3-2,0.9-2.7c0.6-0.7,1.4-1,2.5-1
				c1,0,1.8,0.3,2.3,1c0.6,0.7,0.9,1.5,0.9,2.6c0,1.1-0.3,2.1-0.9,2.7C253.2,350.6,252.4,351,251.4,351z M251.5,344.4
				c-0.7,0-1.3,0.3-1.8,0.8c-0.5,0.5-0.7,1.2-0.7,2.1c0,0.9,0.2,1.6,0.7,2.1c0.5,0.5,1,0.8,1.8,0.8c0.8,0,1.4-0.3,1.8-0.8
				s0.7-1.2,0.7-2.1c0-0.9-0.2-1.6-0.6-2.2C252.8,344.7,252.2,344.4,251.5,344.4z"/>
			<path class="st4" d="M264,350.8h-1l-1.2-2c-0.1-0.2-0.2-0.3-0.3-0.5c-0.1-0.1-0.2-0.2-0.3-0.3c-0.1-0.1-0.2-0.1-0.3-0.2
				c-0.1,0-0.3-0.1-0.4-0.1h-0.7v3H259v-7h2.1c0.3,0,0.6,0,0.9,0.1s0.5,0.2,0.7,0.4c0.2,0.2,0.3,0.4,0.4,0.6
				c0.1,0.2,0.2,0.5,0.2,0.8c0,0.2,0,0.5-0.1,0.7s-0.2,0.4-0.3,0.5s-0.3,0.3-0.5,0.4s-0.4,0.2-0.6,0.3v0c0.1,0.1,0.2,0.1,0.3,0.2
				c0.1,0.1,0.2,0.1,0.2,0.2c0.1,0.1,0.2,0.2,0.2,0.3c0.1,0.1,0.2,0.3,0.3,0.4L264,350.8z M259.8,344.5v2.6h1.1c0.2,0,0.4,0,0.6-0.1
				c0.2-0.1,0.3-0.2,0.5-0.3c0.1-0.1,0.2-0.3,0.3-0.4c0.1-0.2,0.1-0.4,0.1-0.6c0-0.4-0.1-0.7-0.4-0.9c-0.2-0.2-0.6-0.3-1.1-0.3
				H259.8z"/>
			<path class="st4" d="M277.1,350.8h-3.7v-7h0.8v6.3h2.8V350.8z"/>
			<path class="st4" d="M281.8,350.8H281v-7h0.8V350.8z"/>
			<path class="st4" d="M290.1,344.5h-2.7v2.4h2.5v0.7h-2.5v3.1h-0.8v-7h3.6V344.5z"/>
			<path class="st4" d="M298,350.8h-3.7v-7h3.6v0.7h-2.7v2.3h2.5v0.7h-2.5v2.5h2.9V350.8z"/>
		</g>
		<g>
			<path class="st4" d="M118.5,330.8l3.2-9.1h3.6l-4.9,13h-3.7l-4.9-13h3.6L118.5,330.8z"/>
			<path class="st4" d="M136.1,334.7h-6.7v-2.6h1.7v-7.8h-1.7v-2.6h6.7v2.6h-1.7v7.8h1.7V334.7z"/>
			<path class="st4" d="M151.8,334.7h-10.3v-13h10.3v2.6h-7v2.5h5.5v2.6h-5.5v2.7h7V334.7z"/>
			<path class="st4" d="M163.4,334.7H160v-10.4h-3.9v-2.6h11.2v2.6h-3.9V334.7z"/>
			<path class="st4" d="M183.7,334.7h-3.5l-4.5-7.8v7.8h-3.4v-13h3.5l4.5,7.8v-7.8h3.4V334.7z"/>
			<path class="st4" d="M192,334.7h-3.6l4.9-13h3.7l4.9,13h-3.6l-0.8-2.3h-4.7L192,334.7z M193.7,329.9h3l-1.5-4.4L193.7,329.9z"/>
			<path class="st4" d="M217.8,327.4l-2.6,4.7h-2.6l-2.6-4.7v7.3h-3.4v-13h3.5l3.7,6.9l3.7-6.9h3.5v13h-3.4V327.4z"/>
			<path class="st4" d="M242.8,334.7h-3.4v-10.4h-3.9v-2.6h11.2v2.6h-3.9V334.7z"/>
			<path class="st4" d="M262,334.7h-10.3v-13H262v2.6h-7v2.5h5.5v2.6h-5.5v2.7h7V334.7z"/>
			<path class="st4" d="M270.4,334.7c-1.2,0-2.1-0.3-2.7-0.8c-0.6-0.6-0.9-1.5-0.9-2.7v-5.9c0-1.3,0.3-2.2,0.9-2.8
				c0.6-0.6,1.5-0.9,2.8-0.9h6.7v2.6h-6c-0.7,0-1.1,0.4-1.1,1.1v5.9c0,0.3,0.1,0.5,0.3,0.7c0.2,0.2,0.4,0.2,0.7,0.2
				c0.2,0,0.5,0,0.8,0s0.6,0,1,0c0.3,0,0.7,0,1,0s0.7-0.1,1-0.2c0.8,0,1.5,0,2.3,0v2.4c-0.8,0.2-1.7,0.2-2.5,0.2c-0.7,0-1.5,0-2.2,0
				S271.1,334.7,270.4,334.7z"/>
			<path class="st4" d="M293.9,334.7h-3.4v-5.3h-4.7v5.3h-3.4v-13h3.4v5.1h4.7v-5.1h3.4V334.7z"/>
			<path class="st4" d="M311.2,334.7h-3.5l-4.5-7.8v7.8h-3.4v-13h3.5l4.5,7.8v-7.8h3.4V334.7z"/>
			<path class="st4" d="M328.9,331.1c0,1.3-0.3,2.3-0.9,2.8c-0.6,0.6-1.5,0.9-2.8,0.9h-4.7c-1.3,0-2.3-0.3-2.8-0.9
				c-0.6-0.6-0.9-1.5-0.9-2.8v-6c0-1.3,0.3-2.3,0.9-2.8c0.6-0.6,1.5-0.9,2.8-0.9h4.7c1.3,0,2.3,0.3,2.8,0.9s0.9,1.5,0.9,2.8V331.1z
				 M325.6,325.2c0-0.7-0.4-1.1-1.1-1.1h-3.2c-0.7,0-1.1,0.4-1.1,1.1v6c0,0.7,0.4,1.1,1.1,1.1h3.2c0.7,0,1.1-0.4,1.1-1.1V325.2z"/>
			<path class="st4" d="M337.9,332.1h6.8v2.6h-10.2v-13h3.4V332.1z"/>
			<path class="st4" d="M361.5,331.1c0,1.3-0.3,2.3-0.9,2.8c-0.6,0.6-1.5,0.9-2.8,0.9h-4.7c-1.3,0-2.3-0.3-2.8-0.9
				c-0.6-0.6-0.9-1.5-0.9-2.8v-6c0-1.3,0.3-2.3,0.9-2.8c0.6-0.6,1.5-0.9,2.8-0.9h4.7c1.3,0,2.3,0.3,2.8,0.9s0.9,1.5,0.9,2.8V331.1z
				 M358.1,325.2c0-0.7-0.4-1.1-1.1-1.1h-3.2c-0.7,0-1.1,0.4-1.1,1.1v6c0,0.7,0.4,1.1,1.1,1.1h3.2c0.7,0,1.1-0.4,1.1-1.1V325.2z"/>
			<path class="st4" d="M370.2,334.8c-1.2,0-2.1-0.3-2.7-0.9c-0.6-0.6-0.9-1.5-0.9-2.7v-5.9c0-1.3,0.3-2.2,0.9-2.8
				c0.6-0.6,1.5-0.9,2.8-0.9h6.7v2.6h-6c-0.7,0-1.1,0.4-1.1,1.1v5.9c0,0.3,0.1,0.5,0.3,0.7c0.2,0.2,0.4,0.2,0.7,0.2
				c0.4,0,0.8,0,1.2,0s0.9,0,1.3,0c0.5,0,0.9,0,1.4,0v-2.8h-2.4v-2.2h5.8v7.2c-0.9,0.1-1.9,0.2-2.8,0.2c-0.8,0.1-1.7,0.2-2.6,0.2
				S371,334.8,370.2,334.8z"/>
			<path class="st4" d="M381.6,321.6h3.5l3.1,6.3l3.1-6.3h3.5l-4.9,9.6v3.4h-3.4v-3.4L381.6,321.6z"/>
		</g>
		<polygon class="st1" points="414.6,183.5 413.8,184.9 349.1,303.4 261,303.5 239.6,265 262.2,224.6 284,263.3 327.9,263.3 
			372.5,184.9 348.8,184.9 327.3,146.8 393.9,146.8 		"/>
		<polygon class="st1" points="328,184.9 306.2,226.5 283.1,184.9 240.6,184.9 173.6,303.4 170.6,297.9 160.5,279.6 151.2,263 
			109.6,189.1 85.4,146.8 157.8,146.7 137.7,164.4 173.9,225.7 217.8,146.7 306.2,146.7 		"/>
	</g>
</g>
</svg>
